<svg xmlns="http://www.w3.org/2000/svg" width="162.21873474121094" height="209.00006103515625" viewBox="10.470081329345703 -14.552148818969727 162.21873474121094 209.00006103515625"><title>Neo4j Graph Visualization</title><desc>Created using Neo4j (http://www.neo4j.com/)</desc><g class="layer relationships"><g class="relationship" transform="translate(70.65407376649405 165.44790330830432) rotate(252.93376844077386)"><path class="outline" fill="#A5ABB6" stroke="none" d="M 17.324116139070416,-18.03122292025696 L 18.031222920256962,-17.324116139070412 A 46.979852909247235 46.979852909247235 0 0 1 21.921998566184726,-20.804704856581687 L 21.29770974642185,-21.585898475039407 A 47.979852909247235 47.979852909247235 0 0 0 17.324116139070416,-18.03122292025696 Z M 77.75586951426067,-24.098817413969122 L 77.20345277232397,-23.2652493344291 A 46.979852909247235 46.979852909247235 0 0 1 81.38806821294403,-20.1440914464754 L 79.46360032797882,-17.842695487554476 L 87.07873676458705,-16.037232374710072 L 83.95402539289763,-23.212619391703296 L 82.02955750793242,-20.91122343278237 A 47.979852909247235 47.979852909247235 0 0 0 77.75586951426067,-24.098817413969122"/><text text-anchor="middle" pointer-events="none" font-size="8px" fill="#000000" x="49.13978583355346" y="-28.537235384168824" transform="rotate(180 49.13978583355346 -31.537235384168824)" font-family="sans-serif">BEST_TICKET</text></g><g class="relationship" transform="translate(39.47008194976545 63.86977355777194) rotate(348.75626177418735)"><path class="outline" fill="#A5ABB6" stroke="none" d="M 5.987513214418485,24.277555179777966 L 6.953439040707552,24.018736134675446 A 45.860824817901985 45.860824817901985 0 0 0 21.447600642579477,47.00503087114349 L 20.79772150013056,47.76506843614265 A 46.860824817901985 46.860824817901985 0 0 1 5.987513214418485,24.277555179777966 Z M 77.02866689550937,51.28320220555197 L 76.4785896647214,50.44808841679703 A 45.860824817901985 45.860824817901985 0 0 0 93.7248157788664,29.447656252845004 L 90.94641688611152,28.31606463360312 L 96.82826270588994,23.153324106290604 L 97.4293476358729,30.95644507850085 L 94.65094874311802,29.824853459258964 A 46.860824817901985 46.860824817901985 0 0 1 77.02866689550937,51.28320220555197"/><text text-anchor="middle" pointer-events="none" font-size="8px" fill="#000000" x="48.356652871494475" y="61.41943236810388" font-family="sans-serif">BEST_TICKET</text></g><g class="relationship" transform="translate(70.65407376649405 165.44790330830432) rotate(252.93376844077386)"><path class="outline" fill="#A5ABB6" stroke="none" d="M 24.018736134675446,-6.953439040707552 L 24.277555179777966,-5.987513214418485 A 104.21737048396037 104.21737048396037 0 0 1 25.419789132765324,-6.286649112485122 L 25.17193019870459,-7.255445246254382 A 105.21737048396037 105.21737048396037 0 0 0 24.018736134675446,-6.953439040707552 Z M 74.04940682142845,-8.038971299989186 L 73.83272766260674,-7.062728429524924 A 104.21737048396037 104.21737048396037 0 0 1 74.9839627964337,-6.800357784231557 L 74.30078587895753,-3.879181771145774 L 81.9139029798799,-5.693140978968115 L 75.89486535306861,-10.695259135012602 L 75.21168843559244,-7.774083121926819 A 105.21737048396037 105.21737048396037 0 0 0 74.04940682142845,-8.038971299989186"/><text text-anchor="middle" pointer-events="none" font-size="8px" fill="#000000" x="49.57254861688668" y="-7.0251817672730255" transform="rotate(180 49.57254861688668 -10.025181767273025)" font-family="sans-serif">BUSINES…</text></g><g class="relationship" transform="translate(39.47008194976545 63.86977355777194) rotate(348.75626177418735)"><path class="outline" fill="#A5ABB6" stroke="none" d="M 12.698856172145504,21.540405101092272 L 13.549972844582506,21.015428520757713 A 44.29665464630662 44.29665464630662 0 0 0 21.989727785142097,31.01635018694425 L 21.32913915614197,31.767098256029833 A 45.29665464630662 45.29665464630662 0 0 1 12.698856172145504,21.540405101092272 Z M 77.32363926461551,34.801718256051885 L 76.74805492354312,33.98397583553533 A 44.29665464630662 44.29665464630662 0 0 0 86.21920306185645,24.95373494328758 L 83.85101459296489,23.112082593953147 L 90.91108995511871,19.73490390742967 L 89.3767876870452,27.409271409066818 L 87.00859921815363,25.567619059732387 A 45.29665464630662 45.29665464630662 0 0 1 77.32363926461551,34.801718256051885"/><text text-anchor="middle" pointer-events="none" font-size="8px" fill="#000000" x="48.827398430876634" y="45.49173545244598" font-family="sans-serif">BEST_TICKET</text></g><g class="relationship" transform="translate(39.47008194976545 63.86977355777194) rotate(348.75626177418735)"><path class="outline" fill="#A5ABB6" stroke="none" d="M 18.343228848217933,16.993409175968942 L 19.008024713831873,16.246384104727944 A 48.50145902100223 48.50145902100223 0 0 0 21.825766538466432,18.569891693426655 L 21.21906669473535,19.364822696480807 A 49.50145902100223 49.50145902100223 0 0 1 18.343228848217933,16.993409175968942 Z M 77.90034542032738,21.730744164983008 L 77.36200267649467,20.88801817739116 A 48.50145902100223 48.50145902100223 0 0 0 80.36357563969356,18.807413397134077 L 78.56288868634752,16.407928765791475 L 86.26248760505064,15.005724611217063 L 82.76449157748829,22.00672623892421 L 80.96380462414224,19.607241607581607 A 49.50145902100223 49.50145902100223 0 0 1 77.90034542032738,21.730744164983008"/><text text-anchor="middle" pointer-events="none" font-size="8px" fill="#000000" x="49.20801391975956" y="31.973405477799744" font-family="sans-serif">BEST_TICKET</text></g><g class="relationship" transform="translate(39.47008194976545 63.86977355777194) rotate(432.93376844077386)"><path class="outline" fill="#A5ABB6" stroke="none" d="M 24.018736134675446,-6.953439040707552 L 24.277555179777966,-5.987513214418485 A 104.21737048396037 104.21737048396037 0 0 1 26.691287530463814,-6.603448797831149 L 26.455629042372827,-7.575284728938186 A 105.21737048396037 105.21737048396037 0 0 0 24.018736134675446,-6.953439040707552 Z M 72.75611588043921,-8.317500576500251 L 72.5517283321666,-7.338610526437876 A 104.21737048396037 104.21737048396037 0 0 1 74.9839627964337,-6.800357784231557 L 74.30078587895753,-3.879181771145774 L 81.9139029798799,-5.693140978968115 L 75.89486535306861,-10.695259135012602 L 75.21168843559244,-7.774083121926819 A 105.21737048396037 105.21737048396037 0 0 0 72.75611588043921,-8.317500576500251"/><text text-anchor="middle" pointer-events="none" font-size="8px" fill="#000000" x="49.57254861688668" y="-7.0251817672730255" font-family="sans-serif">BEST_TI…</text></g><g class="relationship" transform="translate(39.47008194976545 63.86977355777194) rotate(348.75626177418735)"><path class="outline" fill="#A5ABB6" stroke="none" d="M 22.446385545045896,11.018610437035811 L 22.869003806786598,10.112302649999162 A 67.15893019754489 67.15893019754489 0 0 0 24.34160807887352,10.777539922209321 L 23.940916972132985,11.693753127188948 A 68.15893019754489 68.15893019754489 0 0 1 22.446385545045896,11.018610437035811 Z M 75.24554220793983,13.041645993478632 L 74.89351279680969,12.10565705460202 A 67.15893019754489 67.15893019754489 0 0 0 76.3990161588973,11.518661656622433 L 75.27567685296928,8.736916016964274 L 83.07697920242099,9.36116088273343 L 77.89680190013463,15.22765584283331 L 76.77346259420662,12.445910203175151 A 68.15893019754489 68.15893019754489 0 0 1 75.24554220793983,13.041645993478632"/><text text-anchor="middle" pointer-events="none" font-size="8px" fill="#000000" x="49.47464847248037" y="19.88123320118057" font-family="sans-serif">BEST_TIC…</text></g><g class="relationship" transform="translate(39.47008194976545 63.86977355777194) rotate(348.75626177418735)"><path class="outline" fill="#A5ABB6" stroke="none" d="M 24.663575034869986,4.118017301971641 L 24.808506894177235,3.1285756633906963 A 182.45185964945796 182.45185964945796 0 0 0 26.52274449152452,3.3713721770920415 L 26.387208193329343,4.362144558555883 A 183.45185964945796 183.45185964945796 0 0 1 24.663575034869986,4.118017301971641 Z M 72.85386643093733,4.7786466771638345 L 72.73611198393976,3.785603933767419 A 182.45185964945796 182.45185964945796 0 0 0 74.45442639211333,3.5735749690303433 L 74.07290933403367,0.5979330661135571 L 81.46117700859912,3.1793088173305777 L 74.96311580288624,7.541097506252726 L 74.58159874480657,4.565455603335939 A 183.45185964945796 183.45185964945796 0 0 1 72.85386643093733,4.7786466771638345"/><text text-anchor="middle" pointer-events="none" font-size="8px" fill="#000000" x="49.61177800518601" y="8.547619272039583" font-family="sans-serif">BEST_TI…</text></g><g class="relationship" transform="translate(39.47008194976545 63.86977355777194) rotate(432.93376844077386)"><path class="outline" fill="#A5ABB6" stroke="none" d="M 17.324116139070416,-18.03122292025696 L 18.031222920256962,-17.324116139070412 A 46.979852909247235 46.979852909247235 0 0 1 19.589993578304483,-18.812952546333797 L 18.916066353066284,-19.55175028258015 A 47.979852909247235 47.979852909247235 0 0 0 17.324116139070416,-18.03122292025696 Z M 80.30881449926011,-22.284304800189396 L 79.70318907013072,-21.488554940251085 A 46.979852909247235 46.979852909247235 0 0 1 81.38806821294403,-20.1440914464754 L 79.46360032797882,-17.842695487554476 L 87.07873676458705,-16.037232374710072 L 83.95402539289763,-23.212619391703296 L 82.02955750793242,-20.91122343278237 A 47.979852909247235 47.979852909247235 0 0 0 80.30881449926011,-22.284304800189396"/><text text-anchor="middle" pointer-events="none" font-size="8px" fill="#000000" x="49.13978583355346" y="-28.537235384168824" font-family="sans-serif">BUSINESS_TI…</text></g><g class="relationship" transform="translate(39.47008194976545 63.86977355777194) rotate(348.75626177418735)"><path class="outline" fill="#A5ABB6" stroke="none" d="M 24.663575034869986,-4.118017301971641 L 24.808506894177235,-3.1285756633906963 A 182.45185964945796 182.45185964945796 0 0 1 25.222445346907147,-3.18872412534958 L 25.07978224196352,-4.178495431504615 A 183.45185964945796 183.45185964945796 0 0 0 24.663575034869986,-4.118017301971641 Z M 74.16437431183752,-4.618463300155071 L 74.03947625842787,-3.626293719763453 A 182.45185964945796 182.45185964945796 0 0 1 74.45442639211333,-3.5735749690303433 L 74.07290933403367,-0.5979330661135571 L 81.46117700859912,-3.1793088173305777 L 74.96311580288624,-7.541097506252726 L 74.58159874480657,-4.565455603335939 A 183.45185964945796 183.45185964945796 0 0 0 74.16437431183752,-4.618463300155071"/><text text-anchor="middle" pointer-events="none" font-size="8px" fill="#000000" x="49.611778005186" y="-2.547619272039583" font-family="sans-serif">BUSINES…</text></g><g class="relationship" transform="translate(39.47008194976545 63.86977355777194) rotate(348.75626177418735)"><path class="outline" fill="#A5ABB6" stroke="none" d="M 22.446385545045896,-11.018610437035811 L 22.869003806786598,-10.112302649999162 A 67.15893019754489 67.15893019754489 0 0 1 23.344821571077393,-10.33192407024837 L 22.929288260852317,-11.241502031774147 A 68.15893019754489 68.15893019754489 0 0 0 22.446385545045896,-11.018610437035811 Z M 76.27952236053056,-12.643137841943812 L 75.9123228146933,-11.712995651987399 A 67.15893019754489 67.15893019754489 0 0 1 76.3990161588973,-11.518661656622433 L 75.27567685296928,-8.736916016964274 L 83.07697920242099,-9.36116088273343 L 77.89680190013463,-15.22765584283331 L 76.77346259420662,-12.445910203175151 A 68.15893019754489 68.15893019754489 0 0 0 76.27952236053056,-12.643137841943812"/><text text-anchor="middle" pointer-events="none" font-size="8px" fill="#000000" x="49.47464847248037" y="-13.88123320118057" font-family="sans-serif">BUSINESS…</text></g><g class="relationship" transform="translate(39.47008194976545 63.86977355777194) rotate(348.75626177418735)"><path class="outline" fill="#A5ABB6" stroke="none" d="M 18.343228848217933,-16.993409175968942 L 19.008024713831873,-16.246384104727944 A 48.50145902100223 48.50145902100223 0 0 1 19.447117137979976,-16.632425912708044 L 18.79137445206436,-17.38741036941439 A 49.50145902100223 49.50145902100223 0 0 0 18.343228848217933,-16.993409175968942 Z M 80.48438327061419,-19.962525421545365 L 79.89383928056787,-19.155519971861047 A 48.50145902100223 48.50145902100223 0 0 1 80.36357563969356,-18.807413397134077 L 78.56288868634752,-16.407928765791475 L 86.26248760505064,-15.005724611217063 L 82.76449157748829,-22.00672623892421 L 80.96380462414224,-19.607241607581607 A 49.50145902100223 49.50145902100223 0 0 0 80.48438327061419,-19.962525421545365"/><text text-anchor="middle" pointer-events="none" font-size="8px" fill="#000000" x="49.208013919759544" y="-25.973405477799744" font-family="sans-serif">BUSINESS_TI…</text></g><g class="relationship" transform="translate(39.47008194976545 63.86977355777194) rotate(348.75626177418735)"><path class="outline" fill="#A5ABB6" stroke="none" d="M 12.698856172145504,-21.540405101092272 L 13.549972844582506,-21.015428520757713 A 44.29665464630662 44.29665464630662 0 0 1 15.489276279446848,-23.899777957468196 L 14.681939514326757,-24.48986892307047 A 45.29665464630662 45.29665464630662 0 0 0 12.698856172145504,-21.540405101092272 Z M 84.71837480376342,-28.28549111539027 L 83.97953921164637,-27.611605392273173 A 44.29665464630662 44.29665464630662 0 0 1 86.21920306185645,-24.95373494328758 L 83.85101459296489,-23.112082593953147 L 90.91108995511871,-19.73490390742967 L 89.3767876870452,-27.409271409066818 L 87.00859921815363,-25.567619059732387 A 45.29665464630662 45.29665464630662 0 0 0 84.71837480376342,-28.28549111539027"/><text text-anchor="middle" pointer-events="none" font-size="8px" fill="#000000" x="48.82739843087663" y="-39.49173545244598" font-family="sans-serif">BUSINESS_TICKET</text></g><g class="relationship" transform="translate(39.47008194976545 63.86977355777194) rotate(348.75626177418735)"><path class="outline" fill="#A5ABB6" stroke="none" d="M 5.987513214418485,-24.277555179777966 L 6.953439040707552,-24.018736134675446 A 45.860824817901985 45.860824817901985 0 0 1 14.81772987905866,-40.00206650001644 L 14.023285723009444,-40.609403706944555 A 46.860824817901985 46.860824817901985 0 0 0 5.987513214418485,-24.277555179777966 Z M 84.64218104680344,-45.02773099363889 L 83.92963304899676,-44.32610762542651 A 45.860824817901985 45.860824817901985 0 0 1 93.7248157788664,-29.447656252845004 L 90.94641688611152,-28.31606463360312 L 96.82826270588994,-23.153324106290604 L 97.4293476358729,-30.95644507850085 L 94.65094874311802,-29.824853459258964 A 46.860824817901985 46.860824817901985 0 0 0 84.64218104680344,-45.02773099363889"/><text text-anchor="middle" pointer-events="none" font-size="8px" fill="#000000" x="48.356652871494475" y="-55.41943236810388" font-family="sans-serif">BUSINESS_TICKET</text></g></g><g class="layer nodes"><g class="node" transform="translate(70.65407376649405,165.44790330830432)"><circle class="outline" cx="0" cy="0" r="25" fill="#4C8EDA" stroke="#2870c2" stroke-width="2px"/><text text-anchor="middle" pointer-events="none" font-family="sans-serif" dy="1.5625" font-size="25" fill="#FFFFFF"/><text text-anchor="middle" pointer-events="none" x="0" y="5" font-size="10px" fill="#FFFFFF" font-family="sans-serif"> MSN</text></g><g class="node" transform="translate(143.68881835902388,43.15121828824733)"><circle class="outline" cx="0" cy="0" r="25" fill="#4C8EDA" stroke="#2870c2" stroke-width="2px"/><text text-anchor="middle" pointer-events="none" font-family="sans-serif" dy="1.5625" font-size="25" fill="#FFFFFF"/><text text-anchor="middle" pointer-events="none" x="0" y="5" font-size="10px" fill="#FFFFFF" font-family="sans-serif"> GRR</text></g><g class="node" transform="translate(39.47008194976545,63.86977355777194)"><circle class="outline" cx="0" cy="0" r="25" fill="#4C8EDA" stroke="#2870c2" stroke-width="2px"/><text text-anchor="middle" pointer-events="none" font-family="sans-serif" dy="1.5625" font-size="25" fill="#FFFFFF"/><text text-anchor="middle" pointer-events="none" x="0" y="5" font-size="10px" fill="#FFFFFF" font-family="sans-serif"> ORD</text></g></g></svg>