<svg xmlns="http://www.w3.org/2000/svg" width="381.0611572265625" height="418.69342041015625" viewBox="-86.8201904296875 -124.94522094726562 381.0611572265625 418.69342041015625"><title>Neo4j Graph Visualization</title><desc>Created using Neo4j (http://www.neo4j.com/)</desc><g class="layer relationships"><g class="relationship" transform="translate(94.68405330513347 -95.94522351384464) rotate(383.1691573308899)"><path class="outline" fill="#A5ABB6" stroke="none" d="M 24.018736134675446,-6.953439040707552 L 24.277555179777966,-5.987513214418485 A 100.09595658163778 100.09595658163778 0 0 1 37.21018364844627,-8.553807645540118 L 37.08056690991365,-9.545371814463223 A 101.09595658163778 101.09595658163778 0 0 0 24.018736134675446,-6.953439040707552 Z M 60.008390134183486,-9.91973513410872 L 59.911214189808405,-8.924467915802595 A 100.09595658163778 100.09595658163778 0 0 1 72.92073089345865,-6.781754366757643 L 72.23929170483207,-3.8601724952017675 L 79.8513284585268,-5.678659905221582 L 73.8293164782941,-10.677196862165477 L 73.14787728966752,-7.755614990609602 A 101.09595658163778 101.09595658163778 0 0 0 60.008390134183486,-9.91973513410872"/><text text-anchor="middle" pointer-events="none" font-size="8px" fill="#000000" x="48.54199276231533" y="-6.884793442121548" font-family="sans-serif">false</text></g><g class="relationship" transform="translate(190.4780565077554 -54.94888640807562) rotate(407.1243175213843)"><path class="outline" fill="#A5ABB6" stroke="none" d="M 21.40063509461097,-12.933012701892217 L 21.90063509461097,-12.06698729810778 A 62.446711735752686 62.446711735752686 0 0 1 41.50276195283921,-19.34238643993813 L 41.31666361896978,-20.324917564193754 A 63.446711735752686 63.446711735752686 0 0 0 21.40063509461097,-12.933012701892217 Z M 61.14954587113675,-20.923625847548436 L 61.02305302873264,-19.931658327505303 A 62.446711735752686 62.446711735752686 0 0 1 81.02834039297349,-13.851914293981846 L 79.68778864950147,-11.168088475663135 L 87.51402592629583,-11.171264528933564 L 82.81574271760286,-17.430348718406798 L 81.47519097413084,-14.746522900088085 A 63.446711735752686 63.446711735752686 0 0 0 61.14954587113675,-20.923625847548436"/><text text-anchor="middle" pointer-events="none" font-size="8px" fill="#000000" x="51.22464233928665" y="-17.904598372138047" font-family="sans-serif">true</text></g><g class="relationship" transform="translate(265.2409800747264 25.57410956081297) rotate(492.0310401300746)"><path class="outline" fill="#A5ABB6" stroke="none" d="M 21.40063509461097,12.933012701892217 L 21.90063509461097,12.06698729810778 A 67.290442182675 67.290442182675 0 0 0 43.84348713831785,20.056814868184944 L 43.669578799064226,21.041576712255917 A 68.290442182675 68.290442182675 0 0 1 21.40063509461097,12.933012701892217 Z M 63.50322558691203,21.617006617988153 L 63.38670314033484,20.623818559540183 A 67.290442182675 67.290442182675 0 0 0 85.75587059786751,13.919607370411528 L 84.40902191778719,11.238936067740145 L 92.23524508411413,11.22373900066934 L 87.5516688379746,17.493835773973373 L 86.20482015789428,14.81316447130199 A 68.290442182675 68.290442182675 0 0 1 63.50322558691203,21.617006617988153"/><text text-anchor="middle" pointer-events="none" font-size="8px" fill="#000000" x="53.57989193874481" y="24.553684040066003" transform="rotate(180 53.57989193874481 21.553684040066003)" font-family="sans-serif">true</text></g><g class="relationship" transform="translate(188.52977811393978 110.67776707426513) rotate(470.2719811502276)"><path class="outline" fill="#A5ABB6" stroke="none" d="M 25 0.5 L 47.63698946539036 0.5 L 47.63698946539036 -0.5 L 25 -0.5 Z M 67.40365587774387 0.5 L 90.04064534313423 0.5 L 90.04064534313423 3.5 L 97.04064534313423 0 L 90.04064534313423 -3.5 L 90.04064534313423 -0.5 L 67.40365587774387 -0.5 Z"/><text text-anchor="middle" pointer-events="none" font-size="8px" fill="#000000" x="57.520322671567115" y="3" transform="rotate(180 57.520322671567115 0)" font-family="sans-serif">true</text></g><g class="relationship" transform="translate(94.68405330513347 -95.94522351384464) rotate(383.1691573308899)"><path class="outline" fill="#A5ABB6" stroke="none" d="M 24.018736134675446,6.953439040707552 L 24.277555179777966,5.987513214418485 A 100.09595658163778 100.09595658163778 0 0 0 37.65429833472792,8.610852061168686 L 37.52911848557074,9.602986127394104 A 101.09595658163778 101.09595658163778 0 0 1 24.018736134675446,6.953439040707552 Z M 59.558196722315955,9.962674824256908 L 59.46547390769097,8.966982864036268 A 100.09595658163778 100.09595658163778 0 0 0 72.92073089345865,6.781754366757643 L 72.23929170483207,3.8601724952017675 L 79.8513284585268,5.678659905221582 L 73.8293164782941,10.677196862165477 L 73.14787728966752,7.755614990609602 A 101.09595658163778 101.09595658163778 0 0 1 59.558196722315955,9.962674824256908"/><text text-anchor="middle" pointer-events="none" font-size="8px" fill="#000000" x="48.54199276231534" y="12.884793442121548" font-family="sans-serif">road</text></g><g class="relationship" transform="translate(190.4780565077554 -54.94888640807562) rotate(407.1243175213843)"><path class="outline" fill="#A5ABB6" stroke="none" d="M 25 0.5 L 40.45628742866654 0.5 L 40.45628742866654 -0.5 L 25 -0.5 Z M 62.422953650285194 0.5 L 77.87924107895174 0.5 L 77.87924107895174 3.5 L 84.87924107895174 0 L 77.87924107895174 -3.5 L 77.87924107895174 -0.5 L 62.422953650285194 -0.5 Z"/><text text-anchor="middle" pointer-events="none" font-size="8px" fill="#000000" x="51.43962053947587" y="3" font-family="sans-serif">road</text></g><g class="relationship" transform="translate(190.4780565077554 -54.94888640807562) rotate(407.1243175213843)"><path class="outline" fill="#A5ABB6" stroke="none" d="M 21.40063509461097,12.933012701892217 L 21.90063509461097,12.06698729810778 A 62.446711735752686 62.446711735752686 0 0 0 28.89358342789304,15.540689648293217 L 28.505566079003213,16.462341717655896 A 63.446711735752686 63.446711735752686 0 0 1 21.40063509461097,12.933012701892217 Z M 74.17030721764719,17.840853344424936 L 73.83859079485109,16.897474197502895 A 62.446711735752686 62.446711735752686 0 0 0 81.02834039297349,13.851914293981846 L 79.68778864950147,11.168088475663135 L 87.51402592629583,11.171264528933564 L 82.81574271760286,17.430348718406798 L 81.47519097413084,14.746522900088085 A 63.446711735752686 63.446711735752686 0 0 1 74.17030721764719,17.840853344424936"/><text text-anchor="middle" pointer-events="none" font-size="8px" fill="#000000" x="51.22464233928665" y="23.904598372138047" font-family="sans-serif">twowheeler</text></g><g class="relationship" transform="translate(265.2409800747264 25.57410956081297) rotate(492.0310401300746)"><path class="outline" fill="#A5ABB6" stroke="none" d="M 25 0.5 L 42.80375319237849 0.5 L 42.80375319237849 -0.5 L 25 -0.5 Z M 64.77041941399713 0.5 L 82.57417260637563 0.5 L 82.57417260637563 3.5 L 89.57417260637563 0 L 82.57417260637563 -3.5 L 82.57417260637563 -0.5 L 64.77041941399713 -0.5 Z"/><text text-anchor="middle" pointer-events="none" font-size="8px" fill="#000000" x="53.78708630318781" y="3" transform="rotate(180 53.78708630318781 0)" font-family="sans-serif">road</text></g><g class="relationship" transform="translate(265.2409800747264 25.57410956081297) rotate(492.0310401300746)"><path class="outline" fill="#A5ABB6" stroke="none" d="M 21.40063509461097,-12.933012701892217 L 21.90063509461097,-12.06698729810778 A 67.290442182675 67.290442182675 0 0 1 31.150499944886015,-16.50435496992059 L 30.787961738125006,-17.43632387961582 A 68.290442182675 68.290442182675 0 0 0 21.40063509461097,-12.933012701892217 Z M 76.57219597262609,-18.764653352828176 L 76.26430018055561,-17.813233266207504 A 67.290442182675 67.290442182675 0 0 1 85.75587059786751,-13.919607370411528 L 84.40902191778719,-11.238936067740145 L 92.23524508411413,-11.22373900066934 L 87.5516688379746,-17.493835773973373 L 86.20482015789428,-14.81316447130199 A 68.290442182675 68.290442182675 0 0 0 76.57219597262609,-18.764653352828176"/><text text-anchor="middle" pointer-events="none" font-size="8px" fill="#000000" x="53.579891938744815" y="-18.553684040066003" transform="rotate(180 53.579891938744815 -21.553684040066003)" font-family="sans-serif">twowheeler</text></g><g class="relationship" transform="translate(94.68405330513347 -95.94522351384464) rotate(447.2043180216895)"><path class="outline" fill="#A5ABB6" stroke="none" d="M 21.15063509461097,13.366025403784437 L 22.15063509461097,11.633974596215559 A 64.61983399302753 64.61983399302753 0 0 0 42.640743474766936,19.20119606969231 L 42.27491744625584,21.1674542716749 A 66.61983399302753 66.61983399302753 0 0 1 21.15063509461097,13.366025403784437 Z M 62.25592104945881,21.833740108002587 L 62.021895580132366,19.847479279282823 A 64.61983399302753 64.61983399302753 0 0 0 82.97059853219966,13.662074936377524 L 81.64700894618412,10.96984340699689 L 90.59107913921987,11.029913216796267 L 85.17658117555891,18.149127485345247 L 83.85299158954336,15.456895955964614 A 66.61983399302753 66.61983399302753 0 0 1 62.25592104945881,21.833740108002587"/><text text-anchor="middle" pointer-events="none" font-size="8px" fill="#000000" x="52.273610988360616" y="24.254938063397063" font-family="sans-serif">true</text></g><g class="relationship" transform="translate(100.19685615792876 16.946596226995272) rotate(406.69833756346236)"><path class="outline" fill="#A5ABB6" stroke="none" d="M 25 0.5 L 51.0143326864758 0.5 L 51.0143326864758 -0.5 L 25 -0.5 Z M 70.78099909882931 0.5 L 96.79533178530511 0.5 L 96.79533178530511 3.5 L 103.79533178530511 0 L 96.79533178530511 -3.5 L 96.79533178530511 -0.5 L 70.78099909882931 -0.5 Z"/><text text-anchor="middle" pointer-events="none" font-size="8px" fill="#000000" x="60.897665892652554" y="3" font-family="sans-serif">true</text></g><g class="relationship" transform="translate(94.68405330513347 -95.94522351384464) rotate(447.2043180216895)"><path class="outline" fill="#A5ABB6" stroke="none" d="M 25 0.5 L 42.02983783121993 0.5 L 42.02983783121993 -0.5 L 25 -0.5 Z M 63.99650405283858 0.5 L 81.02634188405851 0.5 L 81.02634188405851 3.5 L 88.02634188405851 0 L 81.02634188405851 -3.5 L 81.02634188405851 -0.5 L 63.99650405283858 -0.5 Z"/><text text-anchor="middle" pointer-events="none" font-size="8px" fill="#000000" x="53.013170942029255" y="3" font-family="sans-serif">road</text></g><g class="relationship" transform="translate(94.68405330513347 -95.94522351384464) rotate(447.2043180216895)"><path class="outline" fill="#A5ABB6" stroke="none" d="M 21.40063509461097,-12.933012701892217 L 21.90063509461097,-12.06698729810778 A 65.69492117108267 65.69492117108267 0 0 1 43.071573635582695,-19.822426172673374 L 42.89383505493714,-20.806503911955232 A 66.69492117108267 66.69492117108267 0 0 0 21.40063509461097,-12.933012701892217 Z M 62.72733058823999,-21.389408414717394 L 62.60769276922795,-20.396590812001747 A 65.69492117108267 65.69492117108267 0 0 1 84.19755915157134,-13.897887830999752 L 82.85273083243567,-11.216202392315576 L 90.67896322835703,-11.206902659463893 L 85.99066357708557,-17.473468415911984 L 84.6458352579499,-14.79178297722781 A 66.69492117108267 66.69492117108267 0 0 0 62.72733058823999,-21.389408414717394"/><text text-anchor="middle" pointer-events="none" font-size="8px" fill="#000000" x="52.803473060117454" y="-18.339867868790662" font-family="sans-serif">true</text></g><g class="relationship" transform="translate(100.19685615792876 16.946596226995272) rotate(514.3425422904347)"><path class="outline" fill="#A5ABB6" stroke="none" d="M 24.018736134675446,-6.953439040707552 L 24.277555179777966,-5.987513214418485 A 143.37914084739714 143.37914084739714 0 0 1 49.59379299950826,-10.387224901709146 L 49.511542440380104,-11.383836584122662 A 144.37914084739714 144.37914084739714 0 0 0 24.018736134675446,-6.953439040707552 Z M 69.32945847028888,-11.654401057070231 L 69.27444601542767,-10.65591538876538 A 143.37914084739714 143.37914084739714 0 0 1 94.70136004837512,-6.94897554065291 L 94.00430148706783,-4.031080860903791 L 101.62595739467429,-5.808821344227418 L 95.63077146345151,-10.8395017803184 L 94.93371290214422,-7.9216071005692825 A 144.37914084739714 144.37914084739714 0 0 0 69.32945847028888,-11.654401057070231"/><text text-anchor="middle" pointer-events="none" font-size="8px" fill="#000000" x="59.42267785308927" y="-8.359631932322998" transform="rotate(180 59.42267785308927 -11.359631932322998)" font-family="sans-serif">true</text></g><g class="relationship" transform="translate(-13.32687864009057 71.47810200047283) rotate(418.1868871882098)"><path class="outline" fill="#A5ABB6" stroke="none" d="M 24.018736134675446,-6.953439040707552 L 24.277555179777966,-5.987513214418485 A 116.10532649336923 116.10532649336923 0 0 1 42.73827545031183,-9.36382799144512 L 42.638456175746015,-10.358833575562684 A 117.10532649336923 117.10532649336923 0 0 0 24.018736134675446,-6.953439040707552 Z M 62.46382242008654,-10.660736539358538 L 62.39434652390312,-9.663152908854542 A 116.10532649336923 116.10532649336923 0 0 1 80.94931284509379,-6.850517276578603 L 80.26145065818957,-3.9304409741804363 L 87.87746791517354,-5.732184890868464 L 81.86646242763274,-10.743952346442825 L 81.17860024072853,-7.823876044044659 A 117.10532649336923 117.10532649336923 0 0 0 62.46382242008654,-10.660736539358538"/><text text-anchor="middle" pointer-events="none" font-size="8px" fill="#000000" x="52.55235140341216" y="-7.430188504049681" font-family="sans-serif">true</text></g><g class="relationship" transform="translate(45.82541292626162 166.83224726383347) rotate(390.1492110717627)"><path class="outline" fill="#A5ABB6" stroke="none" d="M 24.018736134675446,6.953439040707552 L 24.277555179777966,5.987513214418485 A 123.90746888536802 123.90746888536802 0 0 0 44.69422541563846,9.660387313662397 L 44.60017989403313,10.65595521183208 A 124.90746888536802 124.90746888536802 0 0 1 24.018736134675446,6.953439040707552 Z M 64.42326650146623,10.948197654387826 L 64.35860985110116,9.950290084738427 A 123.90746888536802 123.90746888536802 0 0 0 84.87467858699016,6.880868104455409 L 84.18398146713479,3.9614610604439906 L 91.80174454299271,5.755809332128111 L 85.79560808013066,10.773410829803968 L 85.10491096027529,7.85400378579255 A 124.90746888536802 124.90746888536802 0 0 1 64.42326650146623,10.948197654387826"/><text text-anchor="middle" pointer-events="none" font-size="8px" fill="#000000" x="54.513286435030615" y="13.696040541345482" font-family="sans-serif">true</text></g><g class="relationship" transform="translate(100.19685615792876 16.946596226995272) rotate(514.3425422904347)"><path class="outline" fill="#A5ABB6" stroke="none" d="M 24.018736134675446,6.953439040707552 L 24.277555179777966,5.987513214418485 A 143.37914084739714 143.37914084739714 0 0 0 36.45407379088441,8.688575142569192 L 36.28018006015566,9.673339566384982 A 144.37914084739714 144.37914084739714 0 0 1 24.018736134675446,6.953439040707552 Z M 82.60258583064622,10.305757086170672 L 82.45564093123343,9.316612406896411 A 143.37914084739714 143.37914084739714 0 0 0 94.70136004837512,6.94897554065291 L 94.00430148706783,4.031080860903791 L 101.62595739467429,5.808821344227418 L 95.63077146345151,10.8395017803184 L 94.93371290214422,7.9216071005692825 A 144.37914084739714 144.37914084739714 0 0 1 82.60258583064622,10.305757086170672"/><text text-anchor="middle" pointer-events="none" font-size="8px" fill="#000000" x="59.422677853089304" y="14.359631932322998" transform="rotate(180 59.422677853089304 11.359631932322998)" font-family="sans-serif">twowheeler</text></g><g class="relationship" transform="translate(-13.32687864009057 71.47810200047283) rotate(418.1868871882098)"><path class="outline" fill="#A5ABB6" stroke="none" d="M 24.018736134675446,6.953439040707552 L 24.277555179777966,5.987513214418485 A 116.10532649336923 116.10532649336923 0 0 0 29.665305995539864,7.29412887100321 L 29.452890943936037,8.271308407143906 A 117.10532649336923 117.10532649336923 0 0 1 24.018736134675446,6.953439040707552 Z M 75.70683713129519,8.975668834543455 L 75.52427487851502,7.992474538455525 A 116.10532649336923 116.10532649336923 0 0 0 80.94931284509379,6.850517276578603 L 80.26145065818957,3.9304409741804363 L 87.87746791517354,5.732184890868464 L 81.86646242763274,10.743952346442825 L 81.17860024072853,7.823876044044659 A 117.10532649336923 117.10532649336923 0 0 1 75.70683713129519,8.975668834543455"/><text text-anchor="middle" pointer-events="none" font-size="8px" fill="#000000" x="52.55235140341219" y="13.430188504049681" font-family="sans-serif">twowheeler</text></g><g class="relationship" transform="translate(45.82541292626162 166.83224726383347) rotate(390.1492110717627)"><path class="outline" fill="#A5ABB6" stroke="none" d="M 24.018736134675446,-6.953439040707552 L 24.277555179777966,-5.987513214418485 A 123.90746888536802 123.90746888536802 0 0 1 31.598023658929897,-7.712717403822367 L 31.398284736640026,-8.692566556969155 A 124.90746888536802 124.90746888536802 0 0 0 24.018736134675446,-6.953439040707552 Z M 77.67730230013419,-9.374836346718482 L 77.50653481494922,-8.389524991864803 A 123.90746888536802 123.90746888536802 0 0 1 84.87467858699016,-6.880868104455409 L 84.18398146713479,-3.9614610604439906 L 91.80174454299271,-5.755809332128111 L 85.79560808013066,-10.773410829803968 L 85.10491096027529,-7.85400378579255 A 124.90746888536802 124.90746888536802 0 0 0 77.67730230013419,-9.374836346718482"/><text text-anchor="middle" pointer-events="none" font-size="8px" fill="#000000" x="54.51328643503059" y="-7.696040541345482" font-family="sans-serif">twowheeler</text></g><g class="relationship" transform="translate(100.19685615792876 16.946596226995272) rotate(321.4679181024203)"><path class="outline" fill="#A5ABB6" stroke="none" d="M 25 0.5 L 42.77207267551655 0.5 L 42.77207267551655 -0.5 L 25 -0.5 Z M 65.63873946933978 0.5 L 83.41081214485634 0.5 L 83.41081214485634 3.5 L 90.41081214485634 0 L 83.41081214485634 -3.5 L 83.41081214485634 -0.5 L 65.63873946933978 -0.5 Z"/><text text-anchor="middle" pointer-events="none" font-size="8px" fill="#000000" x="54.20540607242817" y="3" font-family="sans-serif">false</text></g><g class="relationship" transform="translate(-13.32687864009057 71.47810200047283) rotate(472.0235929925782)"><path class="outline" fill="#A5ABB6" stroke="none" d="M 24.018736134675446,-6.953439040707552 L 24.277555179777966,-5.987513214418485 A 128.92143872923316 128.92143872923316 0 0 1 45.95354040328758,-9.849191349221542 L 45.86285464491509,-10.845070906812936 A 129.92143872923316 129.92143872923316 0 0 0 24.018736134675446,-6.953439040707552 Z M 65.6845376197258,-11.131415363700967 L 65.6226566949651,-10.133331824536668 A 128.92143872923316 128.92143872923316 0 0 1 87.4011452815788,-6.899397949306724 L 86.70871739534137,-3.9804009259507995 L 94.32754298378221,-5.770232385312015 L 88.32438246322873,-10.791393980447957 L 87.63195457699129,-7.8723969570920325 A 129.92143872923316 129.92143872923316 0 0 0 65.6845376197258,-11.131415363700967"/><text text-anchor="middle" pointer-events="none" font-size="8px" fill="#000000" x="55.775449021657316" y="-7.866902505502907" transform="rotate(180 55.775449021657316 -10.866902505502907)" font-family="sans-serif">true</text></g><g class="relationship" transform="translate(-57.8201910288647 181.47248923343142) rotate(351.9599959126656)"><path class="outline" fill="#A5ABB6" stroke="none" d="M 21.40063509461097,12.933012701892217 L 21.90063509461097,12.06698729810778 A 57.06139809901731 57.06139809901731 0 0 0 37.41014623138255,18.20621111113148 L 37.18195014179249,19.17982630446805 A 58.06139809901731 58.06139809901731 0 0 1 21.40063509461097,12.933012701892217 Z M 60.08444080467089,19.90369421730354 L 59.91818392873261,18.917611740426857 A 57.06139809901731 57.06139809901731 0 0 0 75.78443050688622,13.770066281738112 L 74.45149280079784,11.082450782510616 L 82.27768962276511,11.107814217403147 L 77.56168078167073,17.353553614041438 L 76.22874307558234,14.665938114813942 A 58.06139809901731 58.06139809901731 0 0 1 60.08444080467089,19.90369421730354"/><text text-anchor="middle" pointer-events="none" font-size="8px" fill="#000000" x="48.612926998297915" y="23.183035484846435" font-family="sans-serif">false</text></g><g class="relationship" transform="translate(-13.32687864009057 71.47810200047283) rotate(472.0235929925782)"><path class="outline" fill="#A5ABB6" stroke="none" d="M 24.018736134675446,6.953439040707552 L 24.277555179777966,5.987513214418485 A 128.92143872923316 128.92143872923316 0 0 0 32.844404287750336,7.972498167834644 L 32.65203539393697,8.953820851100971 A 129.92143872923316 129.92143872923316 0 0 1 24.018736134675446,6.953439040707552 Z M 78.94447483143068,9.622562422923949 L 78.78053271229436,8.636092463131419 A 128.92143872923316 128.92143872923316 0 0 0 87.4011452815788,6.899397949306724 L 86.70871739534137,3.9804009259507995 L 94.32754298378221,5.770232385312015 L 88.32438246322873,10.791393980447957 L 87.63195457699129,7.8723969570920325 A 129.92143872923316 129.92143872923316 0 0 1 78.94447483143068,9.622562422923949"/><text text-anchor="middle" pointer-events="none" font-size="8px" fill="#000000" x="55.775449021657366" y="13.866902505502907" transform="rotate(180 55.775449021657366 10.866902505502907)" font-family="sans-serif">twowheeler</text></g><g class="relationship" transform="translate(-57.8201910288647 181.47248923343142) rotate(351.9599959126656)"><path class="outline" fill="#A5ABB6" stroke="none" d="M 25 0.5 L 37.85390961402113 0.5 L 37.85390961402113 -0.5 L 25 -0.5 Z M 59.82057583563978 0.5 L 72.6744854496609 0.5 L 72.6744854496609 3.5 L 79.6744854496609 0 L 72.6744854496609 -3.5 L 72.6744854496609 -0.5 L 59.82057583563978 -0.5 Z"/><text text-anchor="middle" pointer-events="none" font-size="8px" fill="#000000" x="48.83724272483045" y="3" font-family="sans-serif">road</text></g><g class="relationship" transform="translate(-57.8201910288647 181.47248923343142) rotate(351.9599959126656)"><path class="outline" fill="#A5ABB6" stroke="none" d="M 21.40063509461097,-12.933012701892217 L 21.90063509461097,-12.06698729810778 A 57.06139809901731 57.06139809901731 0 0 1 26.41848443335744,-14.413154778127023 L 25.99765966371031,-15.320296725812959 A 58.06139809901731 58.06139809901731 0 0 0 21.40063509461097,-12.933012701892217 Z M 71.49013708177459,-16.75815539206298 L 71.12743822113501,-15.826248993066415 A 57.06139809901731 57.06139809901731 0 0 1 75.78443050688622,-13.770066281738112 L 74.45149280079784,-11.082450782510616 L 82.27768962276511,-11.107814217403147 L 77.56168078167073,-17.353553614041438 L 76.22874307558234,-14.665938114813942 A 58.06139809901731 58.06139809901731 0 0 0 71.49013708177459,-16.75815539206298"/><text text-anchor="middle" pointer-events="none" font-size="8px" fill="#000000" x="48.61292699829791" y="-17.183035484846435" font-family="sans-serif">twowheeler</text></g><g class="relationship" transform="translate(-57.8201910288647 181.47248923343142) rotate(402.6275007283738)"><path class="outline" fill="#A5ABB6" stroke="none" d="M 25 0.5 L 48.09933552154899 0.5 L 48.09933552154899 -0.5 L 25 -0.5 Z M 67.86600193390251 0.5 L 90.96533745545149 0.5 L 90.96533745545149 3.5 L 97.96533745545149 0 L 90.96533745545149 -3.5 L 90.96533745545149 -0.5 L 67.86600193390251 -0.5 Z"/><text text-anchor="middle" pointer-events="none" font-size="8px" fill="#000000" x="57.982668727725745" y="3" font-family="sans-serif">true</text></g><g class="relationship" transform="translate(32.65427557836645 264.7482066285405) rotate(340.78536968130345)"><path class="outline" fill="#A5ABB6" stroke="none" d="M 25 0.5 L 46.762885659889534 0.5 L 46.762885659889534 -0.5 L 25 -0.5 Z M 66.52955207224305 0.5 L 88.29243773213258 0.5 L 88.29243773213258 3.5 L 95.29243773213258 0 L 88.29243773213258 -3.5 L 88.29243773213258 -0.5 L 66.52955207224305 -0.5 Z"/><text text-anchor="middle" pointer-events="none" font-size="8px" fill="#000000" x="56.64621886606629" y="3" font-family="sans-serif">true</text></g></g><g class="layer nodes"><g class="node" transform="translate(94.68405330513347,-95.94522351384464)"><circle class="outline" cx="0" cy="0" r="25" fill="#D9C8AE" stroke="#c0a378" stroke-width="2px"/><text text-anchor="middle" pointer-events="none" font-family="sans-serif" dy="1.5625" font-size="25" fill="#2A2C34"/><text text-anchor="middle" pointer-events="none" x="0" y="5" font-size="10px" fill="#2A2C34" font-family="sans-serif"> Darjeeling</text></g><g class="node" transform="translate(146.24550600737538,225.1590295069737)"><circle class="outline" cx="0" cy="0" r="25" fill="#8DCC93" stroke="#5db665" stroke-width="2px"/><text text-anchor="middle" pointer-events="none" font-family="sans-serif" dy="1.5625" font-size="25" fill="#2A2C34"/><text text-anchor="middle" pointer-events="none" x="0" y="5" font-size="10px" fill="#2A2C34" font-family="sans-serif"> Sandak…</text></g><g class="node" transform="translate(190.4780565077554,-54.94888640807562)"><circle class="outline" cx="0" cy="0" r="25" fill="#F16667" stroke="#eb2728" stroke-width="2px"/><text text-anchor="middle" pointer-events="none" font-family="sans-serif" dy="1.5625" font-size="25" fill="#FFFFFF"/><text text-anchor="middle" pointer-events="none" x="0" y="5" font-size="10px" fill="#FFFFFF" font-family="sans-serif"> Tumbling</text></g><g class="node" transform="translate(265.2409800747264,25.57410956081297)"><circle class="outline" cx="0" cy="0" r="25" fill="#F16667" stroke="#eb2728" stroke-width="2px"/><text text-anchor="middle" pointer-events="none" font-family="sans-serif" dy="1.5625" font-size="25" fill="#FFFFFF"/><text text-anchor="middle" pointer-events="none" x="0" y="5" font-size="10px" fill="#FFFFFF" font-family="sans-serif"> Gairibus</text></g><g class="node" transform="translate(188.52977811393978,110.67776707426513)"><circle class="outline" cx="0" cy="0" r="25" fill="#F16667" stroke="#eb2728" stroke-width="2px"/><text text-anchor="middle" pointer-events="none" font-family="sans-serif" dy="1.5625" font-size="25" fill="#FFFFFF"/><text text-anchor="middle" pointer-events="none" x="0" y="5" font-size="10px" fill="#FFFFFF" font-family="sans-serif"> BhikeBh…</text></g><g class="node" transform="translate(100.19685615792876,16.946596226995272)"><circle class="outline" cx="0" cy="0" r="25" fill="#D9C8AE" stroke="#c0a378" stroke-width="2px"/><text text-anchor="middle" pointer-events="none" font-family="sans-serif" dy="1.5625" font-size="25" fill="#2A2C34"/><text text-anchor="middle" pointer-events="none" x="0" y="5" font-size="10px" fill="#2A2C34" font-family="sans-serif"> Rimbik</text></g><g class="node" transform="translate(-13.32687864009057,71.47810200047283)"><circle class="outline" cx="0" cy="0" r="25" fill="#F16667" stroke="#eb2728" stroke-width="2px"/><text text-anchor="middle" pointer-events="none" font-family="sans-serif" dy="1.5625" font-size="25" fill="#FFFFFF"/><text text-anchor="middle" pointer-events="none" x="0" y="5" font-size="10px" fill="#FFFFFF" font-family="sans-serif"> Sirikhola</text></g><g class="node" transform="translate(45.82541292626162,166.83224726383347)"><circle class="outline" cx="0" cy="0" r="25" fill="#F16667" stroke="#eb2728" stroke-width="2px"/><text text-anchor="middle" pointer-events="none" font-family="sans-serif" dy="1.5625" font-size="25" fill="#FFFFFF"/><text text-anchor="middle" pointer-events="none" x="0" y="5" font-size="10px" fill="#FFFFFF" font-family="sans-serif"> Gurdum</text></g><g class="node" transform="translate(-57.8201910288647,181.47248923343142)"><circle class="outline" cx="0" cy="0" r="25" fill="#F16667" stroke="#eb2728" stroke-width="2px"/><text text-anchor="middle" pointer-events="none" font-family="sans-serif" dy="1.5625" font-size="25" fill="#FFFFFF"/><text text-anchor="middle" pointer-events="none" x="0" y="5" font-size="10px" fill="#FFFFFF" font-family="sans-serif"> Rammam</text></g><g class="node" transform="translate(32.65427557836645,264.7482066285405)"><circle class="outline" cx="0" cy="0" r="25" fill="#8DCC93" stroke="#5db665" stroke-width="2px"/><text text-anchor="middle" pointer-events="none" font-family="sans-serif" dy="1.5625" font-size="25" fill="#2A2C34"/><text text-anchor="middle" pointer-events="none" x="0" y="5" font-size="10px" fill="#2A2C34" font-family="sans-serif"> Sabargr…</text></g></g></svg>