<svg xmlns="http://www.w3.org/2000/svg" width="287.755615234375" height="284.8564758300781" viewBox="-37.391578674316406 -41.74585723876953 287.755615234375 284.8564758300781"><title>Neo4j Graph Visualization</title><desc>Created using Neo4j (http://www.neo4j.com/)</desc><g class="layer relationships"><g class="relationship" transform="translate(149.71402601133207 214.11063213741156) rotate(249.26585993002834)"><path class="outline" fill="#A5ABB6" stroke="none" d="M 25 0.5 L 36.923238871636414 0.5 L 36.923238871636414 -0.5 L 25 -0.5 Z M 72.72323810869696 0.5 L 84.64647698033338 0.5 L 84.64647698033338 3.5 L 91.64647698033338 0 L 84.64647698033338 -3.5 L 84.64647698033338 -0.5 L 72.72323810869696 -0.5 Z"/><text text-anchor="middle" pointer-events="none" font-size="8px" fill="#000000" x="54.82323849016669" y="3" transform="rotate(180 54.82323849016669 0)" font-family="sans-serif">WROTE</text></g><g class="relationship" transform="translate(221.36404896866566 135.9321568704476) rotate(195.3068369600809)"><path class="outline" fill="#A5ABB6" stroke="none" d="M 25 0.5 L 32.28366679221685 0.5 L 32.28366679221685 -0.5 L 25 -0.5 Z M 77.81699961692388 0.5 L 85.10066640914073 0.5 L 85.10066640914073 3.5 L 92.10066640914073 0 L 85.10066640914073 -3.5 L 85.10066640914073 -0.5 L 77.81699961692388 -0.5 Z"/><text text-anchor="middle" pointer-events="none" font-size="8px" fill="#000000" x="55.050333204570364" y="3" transform="rotate(180 55.050333204570364 0)" font-family="sans-serif">ACTED_IN</text></g><g class="relationship" transform="translate(200.36220133053254 32.444643804676744) rotate(501.7150809814416)"><path class="outline" fill="#A5ABB6" stroke="none" d="M 25 0.5 L 32.301403831529605 0.5 L 32.301403831529605 -0.5 L 25 -0.5 Z M 77.83473665623663 0.5 L 85.13614048776624 0.5 L 85.13614048776624 3.5 L 92.13614048776624 0 L 85.13614048776624 -3.5 L 85.13614048776624 -0.5 L 77.83473665623663 -0.5 Z"/><text text-anchor="middle" pointer-events="none" font-size="8px" fill="#000000" x="55.06807024388312" y="3" transform="rotate(180 55.06807024388312 0)" font-family="sans-serif">ACTED_IN</text></g><g class="relationship" transform="translate(105.78291440115154 -12.745856195638423) rotate(448.71845514840567)"><path class="outline" fill="#A5ABB6" stroke="none" d="M 25 0.5 L 32.63047842427713 0.5 L 32.63047842427713 -0.5 L 25 -0.5 Z M 78.16381124898416 0.5 L 85.79428967326129 0.5 L 85.79428967326129 3.5 L 92.79428967326129 0 L 85.79428967326129 -3.5 L 85.79428967326129 -0.5 L 78.16381124898416 -0.5 Z"/><text text-anchor="middle" pointer-events="none" font-size="8px" fill="#000000" x="55.397144836630645" y="3" font-family="sans-serif">ACTED_IN</text></g><g class="relationship" transform="translate(20.407316098361278 27.860142494834346) rotate(401.24118038074744)"><path class="outline" fill="#A5ABB6" stroke="none" d="M 25 0.5 L 32.25525892559832 0.5 L 32.25525892559832 -0.5 L 25 -0.5 Z M 77.78859175030536 0.5 L 85.04385067590367 0.5 L 85.04385067590367 3.5 L 92.04385067590367 0 L 85.04385067590367 -3.5 L 85.04385067590367 -0.5 L 77.78859175030536 -0.5 Z"/><text text-anchor="middle" pointer-events="none" font-size="8px" fill="#000000" x="55.021925337951835" y="3" font-family="sans-serif">ACTED_IN</text></g><g class="relationship" transform="translate(-8.391577928411156 117.86376935357423) rotate(353.72473192837936)"><path class="outline" fill="#A5ABB6" stroke="none" d="M 25 0.5 L 31.823222513385623 0.5 L 31.823222513385623 -0.5 L 25 -0.5 Z M 78.68988739986023 0.5 L 85.51310991324586 0.5 L 85.51310991324586 3.5 L 92.51310991324586 0 L 85.51310991324586 -3.5 L 85.51310991324586 -0.5 L 78.68988739986023 -0.5 Z"/><text text-anchor="middle" pointer-events="none" font-size="8px" fill="#000000" x="55.25655495662293" y="3" font-family="sans-serif">DIRECTED</text></g><g class="relationship" transform="translate(45.56168988011519 204.3959120600026) rotate(302.3132765270435)"><path class="outline" fill="#A5ABB6" stroke="none" d="M 25 0.5 L 32.52665734968249 0.5 L 32.52665734968249 -0.5 L 25 -0.5 Z M 78.05999017438953 0.5 L 85.586647524072 0.5 L 85.586647524072 3.5 L 92.586647524072 0 L 85.586647524072 -3.5 L 85.586647524072 -0.5 L 78.05999017438953 -0.5 Z"/><text text-anchor="middle" pointer-events="none" font-size="8px" fill="#000000" x="55.293323762036" y="3" font-family="sans-serif">ACTED_IN</text></g></g><g class="layer nodes"><g class="node" transform="translate(149.71402601133207,214.11063213741156)"><circle class="outline" cx="0" cy="0" r="25" fill="#F79767" stroke="#f36924" stroke-width="2px"/><text text-anchor="middle" pointer-events="none" font-family="sans-serif" dy="1.5625" font-size="25" fill="#FFFFFF"/><text text-anchor="middle" pointer-events="none" x="0" y="5" font-size="10px" fill="#FFFFFF" font-family="sans-serif"> Christop…</text></g><g class="node" transform="translate(108.41742046556041,105.01896901726114)"><circle class="outline" cx="0" cy="0" r="25" fill="#57C7E3" stroke="#23b3d7" stroke-width="2px"/><text text-anchor="middle" pointer-events="none" font-family="sans-serif" dy="1.5625" font-size="25" fill="#2A2C34"/><text text-anchor="middle" pointer-events="none" font-family="sans-serif" dy="1.5625" font-size="25" fill="#2A2C34"/><text text-anchor="middle" pointer-events="none" font-family="sans-serif" dy="1.5625" font-size="25" fill="#2A2C34"/><text text-anchor="middle" pointer-events="none" x="0" y="-5" font-size="10px" fill="#2A2C34" font-family="sans-serif"> Captain</text><text text-anchor="middle" pointer-events="none" x="0" y="5" font-size="10px" fill="#2A2C34" font-family="sans-serif"> America:</text><text text-anchor="middle" pointer-events="none" x="0" y="15" font-size="10px" fill="#2A2C34" font-family="sans-serif"> The Fi…</text></g><g class="node" transform="translate(221.36404896866566,135.9321568704476)"><circle class="outline" cx="0" cy="0" r="25" fill="#F79767" stroke="#f36924" stroke-width="2px"/><text text-anchor="middle" pointer-events="none" font-family="sans-serif" dy="1.5625" font-size="25" fill="#FFFFFF"/><text text-anchor="middle" pointer-events="none" font-family="sans-serif" dy="1.5625" font-size="25" fill="#FFFFFF"/><text text-anchor="middle" pointer-events="none" x="0" y="0" font-size="10px" fill="#FFFFFF" font-family="sans-serif"> Hugo</text><text text-anchor="middle" pointer-events="none" x="0" y="10" font-size="10px" fill="#FFFFFF" font-family="sans-serif"> Weaving</text></g><g class="node" transform="translate(200.36220133053254,32.444643804676744)"><circle class="outline" cx="0" cy="0" r="25" fill="#F79767" stroke="#f36924" stroke-width="2px"/><text text-anchor="middle" pointer-events="none" font-family="sans-serif" dy="1.5625" font-size="25" fill="#FFFFFF"/><text text-anchor="middle" pointer-events="none" font-family="sans-serif" dy="1.5625" font-size="25" fill="#FFFFFF"/><text text-anchor="middle" pointer-events="none" x="0" y="0" font-size="10px" fill="#FFFFFF" font-family="sans-serif"> Tommy</text><text text-anchor="middle" pointer-events="none" x="0" y="10" font-size="10px" fill="#FFFFFF" font-family="sans-serif"> Lee Jon…</text></g><g class="node" transform="translate(105.78291440115154,-12.745856195638423)"><circle class="outline" cx="0" cy="0" r="25" fill="#F79767" stroke="#f36924" stroke-width="2px"/><text text-anchor="middle" pointer-events="none" font-family="sans-serif" dy="1.5625" font-size="25" fill="#FFFFFF"/><text text-anchor="middle" pointer-events="none" font-family="sans-serif" dy="1.5625" font-size="25" fill="#FFFFFF"/><text text-anchor="middle" pointer-events="none" x="0" y="0" font-size="10px" fill="#FFFFFF" font-family="sans-serif"> Hayley</text><text text-anchor="middle" pointer-events="none" x="0" y="10" font-size="10px" fill="#FFFFFF" font-family="sans-serif"> Atwell</text></g><g class="node" transform="translate(20.407316098361278,27.860142494834346)"><circle class="outline" cx="0" cy="0" r="25" fill="#F79767" stroke="#f36924" stroke-width="2px"/><text text-anchor="middle" pointer-events="none" font-family="sans-serif" dy="1.5625" font-size="25" fill="#FFFFFF"/><text text-anchor="middle" pointer-events="none" font-family="sans-serif" dy="1.5625" font-size="25" fill="#FFFFFF"/><text text-anchor="middle" pointer-events="none" x="0" y="0" font-size="10px" fill="#FFFFFF" font-family="sans-serif"> Chris</text><text text-anchor="middle" pointer-events="none" x="0" y="10" font-size="10px" fill="#FFFFFF" font-family="sans-serif"> Evans</text></g><g class="node" transform="translate(-8.391577928411156,117.86376935357423)"><circle class="outline" cx="0" cy="0" r="25" fill="#F79767" stroke="#f36924" stroke-width="2px"/><text text-anchor="middle" pointer-events="none" font-family="sans-serif" dy="1.5625" font-size="25" fill="#FFFFFF"/><text text-anchor="middle" pointer-events="none" font-family="sans-serif" dy="1.5625" font-size="25" fill="#FFFFFF"/><text text-anchor="middle" pointer-events="none" x="0" y="0" font-size="10px" fill="#FFFFFF" font-family="sans-serif"> Joe</text><text text-anchor="middle" pointer-events="none" x="0" y="10" font-size="10px" fill="#FFFFFF" font-family="sans-serif"> Johnston</text></g><g class="node" transform="translate(45.56168988011519,204.3959120600026)"><circle class="outline" cx="0" cy="0" r="25" fill="#F79767" stroke="#f36924" stroke-width="2px"/><text text-anchor="middle" pointer-events="none" font-family="sans-serif" dy="1.5625" font-size="25" fill="#FFFFFF"/><text text-anchor="middle" pointer-events="none" x="0" y="5" font-size="10px" fill="#FFFFFF" font-family="sans-serif"> Sebastian</text></g></g></svg>